<?xml version="1.0" encoding="UTF-8"?>
<svg xmlns="http://www.w3.org/2000/svg" id="Livello_2" data-name="Livello 2" viewBox="0 0 400 400">
  <g id="Livello_1-2" data-name="Livello 1">
    <path d="M399.25,182.47c-1.8-20.81-6.81-41.03-14.97-60.33-7.79-18.43-18.19-35.39-31-50.64-3.75-4.46-7.7-8.77-11.86-12.93-4.16-4.16-8.47-8.11-12.93-11.86-15.24-12.81-32.21-23.2-50.64-31-19.29-8.16-39.52-13.17-60.33-14.97-5.8-.5-11.65-.75-17.53-.75-3.07,0-6.13.07-9.19.21-4.67.21-8.34,4.08-8.34,8.76v17.54c0,5.02,4.21,9,9.23,8.75,2.76-.14,5.52-.2,8.3-.2,5.89,0,11.74.31,17.53.92,16.09,1.69,31.72,5.72,46.67,12.04,14.24,6.02,27.43,13.94,39.39,23.61l-86.06,86.06-17.53,17.53-17.53-17.53-86.06-86.06-19.07-19.07c-3.32-3.32-8.68-3.47-12.15-.3-2.25,2.05-4.45,4.16-6.62,6.32-4.16,4.16-8.11,8.47-11.86,12.93-12.81,15.24-23.2,32.21-31,50.64-8.16,19.29-13.17,39.52-14.97,60.33-.5,5.8-.75,11.65-.75,17.53s.25,11.73.75,17.53c1.8,20.81,6.81,41.03,14.97,60.33,7.79,18.43,18.19,35.4,31,50.64,3.75,4.46,7.7,8.77,11.86,12.93,2.17,2.17,4.39,4.29,6.65,6.35,3.45,3.15,8.78,3.01,12.09-.3l12.41-12.41c3.55-3.55,3.39-9.34-.33-12.71-2.05-1.85-4.05-3.76-6.02-5.73-4.16-4.16-8.08-8.52-11.74-13.04-9.67-11.95-17.59-25.15-23.61-39.39-6.32-14.95-10.35-30.58-12.04-46.67-.61-5.79-.92-11.63-.92-17.53s.31-11.74.92-17.53c1.69-16.09,5.72-31.72,12.04-46.67,6.02-14.24,13.94-27.43,23.61-39.39l86.06,86.06,17.53,17.53,7.26,7.26,10.27,10.27,1.06,1.06c3.42,3.42,8.97,3.42,12.39,0l1.06-1.06,10.27-10.27,7.26-7.26,17.53-17.53,86.06-86.06c9.67,11.95,17.59,25.15,23.61,39.39,6.32,14.95,10.35,30.58,12.04,46.67.61,5.79.92,11.63.92,17.53s-.31,11.74-.92,17.53c-1.69,16.09-5.72,31.72-12.04,46.67-6.02,14.24-13.94,27.43-23.61,39.39-3.66,4.53-7.58,8.88-11.74,13.05-4.16,4.16-8.52,8.08-13.04,11.74-11.95,9.67-25.15,17.59-39.39,23.61-14.95,6.32-30.58,10.35-46.67,12.04-5.79.61-11.63.92-17.53.92-2.78,0-5.54-.07-8.3-.2-5.02-.25-9.23,3.73-9.23,8.76v17.53c0,4.68,3.67,8.56,8.35,8.77,3.05.14,6.11.21,9.18.21,5.88,0,11.73-.25,17.53-.75,20.81-1.8,41.03-6.81,60.33-14.97,18.43-7.79,35.39-18.19,50.64-31,4.46-3.75,8.77-7.7,12.93-11.86,4.16-4.16,8.11-8.47,11.86-12.93,12.81-15.24,23.2-32.21,31-50.64,8.16-19.29,13.17-39.52,14.97-60.33.5-5.8.75-11.65.75-17.53s-.25-11.73-.75-17.53Z"></path>
  </g>
</svg>
