<?xml version="1.0" encoding="UTF-8"?>
<svg xmlns="http://www.w3.org/2000/svg" xmlns:xlink="http://www.w3.org/1999/xlink" id="Raggruppa_18" data-name="Raggruppa 18" width="143.892" height="100" viewBox="0 0 143.892 100">
  <defs>
    <clipPath id="clip-path">
      <rect id="Rettangolo_35" data-name="Rettangolo 35" width="143.893" height="100" fill="#274c77"></rect>
    </clipPath>
  </defs>
  <g id="Raggruppa_17" data-name="Raggruppa 17" clip-path="url(#clip-path)">
    <path id="Tracciato_25" data-name="Tracciato 25" d="M199.279,186.739H129.721a2.151,2.151,0,1,1,0-4.3h69.558a8.615,8.615,0,0,0,8.6-8.227H166.2l-3.222,2.645a2.148,2.148,0,0,1-1.365.489H144.473a2.152,2.152,0,0,1-1.345-.472L139.8,174.21H122a2.151,2.151,0,1,1,0-4.3h18.555a2.151,2.151,0,0,1,1.344.472l3.324,2.662h15.611l3.222-2.645a2.15,2.15,0,0,1,1.365-.489h44.609a2.151,2.151,0,0,1,2.151,2.151v1.774a12.921,12.921,0,0,1-12.906,12.906" transform="translate(-68.293 -96.814)" fill="#274c77"></path>
    <path id="Tracciato_26" data-name="Tracciato 26" d="M258.6,91.639a2.151,2.151,0,0,1-2.151-2.151V32.143a2.013,2.013,0,0,0-2-2.022h-36.9a2.151,2.151,0,1,1,0-4.3h36.9a6.32,6.32,0,0,1,6.3,6.324V89.488a2.151,2.151,0,0,1-2.151,2.151" transform="translate(-122.731 -14.712)" fill="#274c77"></path>
    <path id="Tracciato_27" data-name="Tracciato 27" d="M78.174,51.244a2.151,2.151,0,0,1-2.151-2.151V32.143a6.331,6.331,0,0,1,6.324-6.324h34.227a2.151,2.151,0,0,1,0,4.3H82.347a2.024,2.024,0,0,0-2.022,2.022v16.95a2.151,2.151,0,0,1-2.151,2.151" transform="translate(-43.318 -14.712)" fill="#274c77"></path>
    <path id="Tracciato_28" data-name="Tracciato 28" d="M186.154,133.7A2.151,2.151,0,0,1,184,131.552v-1a8.394,8.394,0,0,0-5.876-8.03l-.237-.075a35.43,35.43,0,0,0-21.549,0l-.241.076a8.394,8.394,0,0,0-5.874,8.029v1a2.151,2.151,0,1,1-4.3,0v-1a12.68,12.68,0,0,1,8.876-12.13l.241-.076a39.711,39.711,0,0,1,24.149,0l.237.075a12.681,12.681,0,0,1,8.878,12.13v1a2.151,2.151,0,0,1-2.151,2.151" transform="translate(-83.147 -66.361)" fill="#274c77"></path>
    <path id="Tracciato_29" data-name="Tracciato 29" d="M178.948,88.051a12.3,12.3,0,0,1-12.286-12.286V71.325a12.286,12.286,0,0,1,24.572,0v4.441a12.3,12.3,0,0,1-12.286,12.286m0-24.71a7.993,7.993,0,0,0-7.984,7.984v4.441a7.984,7.984,0,0,0,15.968,0V71.325a7.993,7.993,0,0,0-7.984-7.984" transform="translate(-94.965 -33.641)" fill="#274c77"></path>
    <path id="Tracciato_30" data-name="Tracciato 30" d="M54.08,198.992a2.151,2.151,0,0,1-2.151-2.151v-3.61a13.1,13.1,0,0,0-8.6-12.615l-.326-.11a46.089,46.089,0,0,0-29.782,0l-.327.111a13.1,13.1,0,0,0-8.6,12.615v3.61a2.151,2.151,0,0,1-4.3,0v-3.61a17.4,17.4,0,0,1,11.52-16.69l.327-.111a50.348,50.348,0,0,1,32.537,0l.326.11a17.4,17.4,0,0,1,11.521,16.69v3.61a2.151,2.151,0,0,1-2.151,2.151" transform="translate(0 -98.992)" fill="#274c77"></path>
    <path id="Tracciato_31" data-name="Tracciato 31" d="M43.049,130.476a16.9,16.9,0,0,1-16.884-16.884v-6.456a16.884,16.884,0,1,1,33.768,0v6.456a16.9,16.9,0,0,1-16.884,16.884m0-35.921a12.6,12.6,0,0,0-12.582,12.582v6.456a12.582,12.582,0,1,0,25.164,0v-6.456A12.6,12.6,0,0,0,43.049,94.555" transform="translate(-14.909 -51.426)" fill="#274c77"></path>
    <path id="Tracciato_32" data-name="Tracciato 32" d="M192.378,29.7a2.561,2.561,0,1,1,2.561-2.561,2.563,2.563,0,0,1-2.561,2.561m0-4.3a1.741,1.741,0,1,0,1.741,1.741,1.743,1.743,0,0,0-1.741-1.741" transform="translate(-108.158 -14.006)" fill="#274c77"></path>
    <path id="Tracciato_33" data-name="Tracciato 33" d="M167.735,15.414a2.157,2.157,0,0,1-2.139-1.941,5.672,5.672,0,0,1-.022-.577,12.9,12.9,0,1,1,25.791,0c0,.185,0,.388-.022.573a2.151,2.151,0,0,1-4.282-.416c0-.052,0-.107,0-.157a8.593,8.593,0,1,0-17.187,0c0,.05,0,.1,0,.157a2.151,2.151,0,0,1-2.142,2.361" transform="translate(-94.344)" fill="#274c77"></path>
  </g>
</svg>
