<?xml version="1.0" encoding="UTF-8"?>
<svg xmlns="http://www.w3.org/2000/svg" xmlns:xlink="http://www.w3.org/1999/xlink" id="Raggruppa_15" data-name="Raggruppa 15" width="118.127" height="100" viewBox="0 0 118.127 100">
  <defs>
    <clipPath id="clip-path">
      <rect id="Rettangolo_34" data-name="Rettangolo 34" width="118.127" height="100" fill="#274c77"></rect>
    </clipPath>
  </defs>
  <g id="Raggruppa_14" data-name="Raggruppa 14" clip-path="url(#clip-path)">
    <path id="Tracciato_17" data-name="Tracciato 17" d="M103.229,100H39.684a1.814,1.814,0,0,1-1.814-1.814V94.7a1.814,1.814,0,0,1,3.628,0v1.671h59.918v-58.6a1.814,1.814,0,0,1,3.306-1.032L113,48.716,128.568,38.2,108.5,11.82a12.984,12.984,0,0,0-6.965-4.665L90.177,4.135a18.864,18.864,0,0,1-37.441,0L41.375,7.155A12.985,12.985,0,0,0,34.41,11.82l-8.98,11.8a1.814,1.814,0,1,1-2.887-2.2l8.98-11.8a16.634,16.634,0,0,1,8.921-5.975L53.942.06a1.814,1.814,0,0,1,2.28,1.753,15.235,15.235,0,1,0,30.47,0A1.814,1.814,0,0,1,88.971.061l13.5,3.588a16.632,16.632,0,0,1,8.92,5.975l21.226,27.9a1.814,1.814,0,0,1-.428,2.6l-18.645,12.6a1.814,1.814,0,0,1-2.508-.472l-5.994-8.669v54.6A1.814,1.814,0,0,1,103.229,100" transform="translate(-14.86 0)" fill="#274c77"></path>
    <path id="Tracciato_18" data-name="Tracciato 18" d="M22.324,146.265H1.814A1.814,1.814,0,0,1,0,144.452V86.9a1.814,1.814,0,0,1,1.814-1.814h20.51A1.814,1.814,0,0,1,24.137,86.9v57.554a1.814,1.814,0,0,1-1.814,1.814m-18.7-3.628H20.51V88.712H3.628Z" transform="translate(0 -57.024)" fill="#274c77"></path>
    <path id="Tracciato_19" data-name="Tracciato 19" d="M64.005,150.921a1.814,1.814,0,0,1-.827-3.429l8.3-4.245V106.432l-8.3-4.245a1.814,1.814,0,0,1,1.652-3.23l9.288,4.75a1.813,1.813,0,0,1,.988,1.615v39.035a1.814,1.814,0,0,1-.988,1.615l-9.288,4.75a1.807,1.807,0,0,1-.824.2" transform="translate(-41.68 -66.189)" fill="#274c77"></path>
    <path id="Tracciato_20" data-name="Tracciato 20" d="M130.257,148.8c-4.485,0-8.454-3.362-10.277-8.533a13.2,13.2,0,0,1-9.348-1.448,1.814,1.814,0,1,1,1.91-3.084,10.335,10.335,0,0,0,8.176.63,1.814,1.814,0,0,1,2.276,1.314c1.083,4.482,4,7.494,7.263,7.494s6.18-3.012,7.264-7.494a1.814,1.814,0,0,1,2.276-1.314c4.424,1.3,8.491.281,10.121-2.543s.482-6.858-2.858-10.037a1.814,1.814,0,0,1,0-2.628c3.34-3.179,4.489-7.213,2.858-10.037s-5.7-3.847-10.121-2.544a1.813,1.813,0,0,1-2.276-1.314c-1.083-4.482-4-7.493-7.264-7.493s-6.18,3.011-7.263,7.493a1.814,1.814,0,0,1-2.276,1.314,10.334,10.334,0,0,0-8.176.63,1.814,1.814,0,0,1-1.91-3.084,13.2,13.2,0,0,1,9.348-1.447c1.822-5.171,5.791-8.533,10.277-8.533s8.453,3.361,10.276,8.531c5.388-1.007,10.284.75,12.526,4.634s1.316,9-2.25,13.165c3.566,4.163,4.492,9.281,2.25,13.165s-7.138,5.64-12.526,4.633c-1.823,5.17-5.792,8.531-10.276,8.531" transform="translate(-73.571 -64.435)" fill="#274c77"></path>
    <path id="Tracciato_21" data-name="Tracciato 21" d="M149.744,165.525a10.9,10.9,0,1,1,10.9-10.9,10.908,10.908,0,0,1-10.9,10.9m0-18.163a7.268,7.268,0,1,0,7.268,7.268,7.276,7.276,0,0,0-7.268-7.268" transform="translate(-93.058 -96.333)" fill="#274c77"></path>
    <path id="Tracciato_22" data-name="Tracciato 22" d="M113.631,152.071h-.81a1.814,1.814,0,0,1,0-3.628h.81a1.814,1.814,0,0,1,0,3.628" transform="translate(-74.399 -99.488)" fill="#274c77"></path>
    <path id="Tracciato_23" data-name="Tracciato 23" d="M113.631,176.059h-.81a1.814,1.814,0,0,1,0-3.628h.81a1.814,1.814,0,0,1,0,3.628" transform="translate(-74.399 -115.565)" fill="#274c77"></path>
    <path id="Tracciato_24" data-name="Tracciato 24" d="M113.631,200.046h-.81a1.814,1.814,0,1,1,0-3.628h.81a1.814,1.814,0,1,1,0,3.628" transform="translate(-74.399 -131.642)" fill="#274c77"></path>
  </g>
</svg>
