<?xml version="1.0" encoding="UTF-8"?>
<svg xmlns="http://www.w3.org/2000/svg" id="Livello_2" data-name="Livello 2" viewBox="0 0 1357.96 450.26">
  <g id="Livello_1-2" data-name="Livello 1">
    <path d="M449.41,205.4c-2.02-23.42-7.67-46.19-16.85-67.91-8.77-20.74-20.47-39.84-34.89-57-4.22-5.02-8.67-9.88-13.35-14.56-4.68-4.68-9.53-9.13-14.56-13.35-17.16-14.42-36.26-26.12-57-34.89-21.72-9.18-44.48-14.83-67.91-16.85-6.53-.56-13.11-.85-19.73-.85-3.46,0-6.91.08-10.34.23-5.26.24-9.39,4.59-9.39,9.86v19.75c0,5.65,4.74,10.13,10.38,9.85,3.1-.15,6.22-.23,9.35-.23,6.63,0,13.22.35,19.73,1.03,18.11,1.9,35.71,6.44,52.53,13.55,16.03,6.78,30.88,15.69,44.34,26.58l-96.87,96.87-19.73,19.73-19.73-19.73-96.87-96.87-21.47-21.47c-3.74-3.74-9.77-3.9-13.67-.33-2.53,2.31-5.01,4.68-7.45,7.12-4.68,4.68-9.13,9.53-13.35,14.56-14.42,17.16-26.12,36.26-34.89,57C8.52,159.21,2.87,181.97.85,205.4c-.56,6.53-.85,13.11-.85,19.73s.28,13.2.85,19.73c2.02,23.42,7.67,46.19,16.85,67.91,8.77,20.74,20.47,39.84,34.89,57,4.22,5.02,8.67,9.88,13.35,14.56,2.45,2.45,4.94,4.83,7.48,7.15,3.89,3.55,9.89,3.39,13.61-.33l13.97-13.97c4-4,3.81-10.51-.38-14.31-2.3-2.09-4.56-4.23-6.77-6.45-4.69-4.69-9.09-9.59-13.22-14.68-10.89-13.46-19.8-28.31-26.58-44.34-7.12-16.82-11.65-34.42-13.55-52.53-.68-6.52-1.03-13.1-1.03-19.73s.35-13.22,1.03-19.73c1.9-18.11,6.44-35.71,13.55-52.53,6.78-16.03,15.69-30.88,26.58-44.34l96.87,96.87,19.73,19.73,8.17,8.17,11.56,11.56,1.2,1.2c3.85,3.85,10.1,3.85,13.95,0l1.2-1.2,11.56-11.56,8.17-8.17,19.73-19.73,96.87-96.87c10.89,13.46,19.8,28.31,26.58,44.34,7.12,16.82,11.65,34.42,13.55,52.53.68,6.52,1.03,13.1,1.03,19.73s-.35,13.22-1.03,19.73c-1.9,18.11-6.43,35.71-13.55,52.53-6.78,16.03-15.69,30.88-26.58,44.34-4.13,5.1-8.53,10-13.22,14.68-4.69,4.69-9.59,9.09-14.68,13.22-13.46,10.89-28.31,19.8-44.34,26.58-16.82,7.12-34.42,11.65-52.53,13.55-6.52.68-13.1,1.03-19.73,1.03-3.12,0-6.24-.08-9.34-.23-5.65-.28-10.39,4.2-10.39,9.86v19.73c0,5.27,4.14,9.63,9.4,9.87,3.43.15,6.88.23,10.33.23,6.62,0,13.2-.28,19.73-.85,23.42-2.02,46.19-7.67,67.91-16.85,20.74-8.77,39.84-20.47,57-34.89,5.02-4.22,9.88-8.67,14.56-13.35,4.68-4.68,9.13-9.54,13.35-14.56,14.42-17.16,26.12-36.26,34.89-57,9.18-21.72,14.83-44.48,16.85-67.91.56-6.53.85-13.11.85-19.73s-.28-13.2-.85-19.73Z"></path>
    <g>
      <path d="M692.49,57.63v113.17h-27.57v-67.87l-25.31,67.87h-22.25l-25.47-68.03v68.03h-27.57V57.63h32.56l31.76,78.35,31.44-78.35h32.4Z"></path>
      <path d="M712.08,101.32c3.49-6.98,8.25-12.36,14.27-16.12,6.02-3.76,12.74-5.64,20.15-5.64,6.34,0,11.9,1.29,16.69,3.87,4.78,2.58,8.46,5.96,11.04,10.16v-12.74h27.57v89.96h-27.57v-12.74c-2.69,4.19-6.42,7.58-11.2,10.16-4.78,2.58-10.35,3.87-16.69,3.87-7.31,0-13.97-1.91-19.99-5.72-6.02-3.81-10.78-9.24-14.27-16.28-3.49-7.04-5.24-15.18-5.24-24.42s1.75-17.35,5.24-24.34ZM768.5,109.54c-3.82-3.97-8.46-5.96-13.94-5.96s-10.13,1.96-13.95,5.88c-3.82,3.92-5.72,9.33-5.72,16.2s1.91,12.33,5.72,16.36c3.81,4.03,8.46,6.04,13.95,6.04s10.13-1.99,13.94-5.96c3.81-3.98,5.72-9.4,5.72-16.28s-1.91-12.3-5.72-16.28Z"></path>
      <path d="M871.91,147.42v23.38h-14.03c-10,0-17.79-2.44-23.38-7.33-5.59-4.89-8.38-12.87-8.38-23.94v-35.79h-10.96v-22.89h10.96v-21.92h27.57v21.92h18.06v22.89h-18.06v36.11c0,2.69.64,4.62,1.93,5.8,1.29,1.18,3.44,1.77,6.45,1.77h9.83Z"></path>
      <path d="M886.99,101.32c3.49-6.98,8.25-12.36,14.27-16.12,6.02-3.76,12.74-5.64,20.15-5.64,6.34,0,11.9,1.29,16.69,3.87,4.78,2.58,8.46,5.96,11.04,10.16v-12.74h27.57v89.96h-27.57v-12.74c-2.69,4.19-6.42,7.58-11.2,10.16-4.78,2.58-10.35,3.87-16.69,3.87-7.31,0-13.97-1.91-19.99-5.72-6.02-3.81-10.78-9.24-14.27-16.28-3.49-7.04-5.24-15.18-5.24-24.42s1.75-17.35,5.24-24.34ZM943.41,109.54c-3.82-3.97-8.46-5.96-13.94-5.96s-10.13,1.96-13.95,5.88c-3.82,3.92-5.72,9.33-5.72,16.2s1.91,12.33,5.72,16.36c3.81,4.03,8.46,6.04,13.95,6.04s10.13-1.99,13.94-5.96c3.81-3.98,5.72-9.4,5.72-16.28s-1.91-12.3-5.72-16.28Z"></path>
      <path d="M996.93,101.32c3.81-6.98,9.13-12.36,15.96-16.12,6.82-3.76,14.64-5.64,23.46-5.64,11.28,0,20.71,2.96,28.29,8.87,7.58,5.91,12.55,14.24,14.91,24.99h-29.34c-2.47-6.88-7.25-10.32-14.35-10.32-5.05,0-9.08,1.96-12.09,5.88-3.01,3.92-4.51,9.54-4.51,16.85s1.5,12.92,4.51,16.85c3.01,3.92,7.04,5.88,12.09,5.88,7.09,0,11.88-3.44,14.35-10.32h29.34c-2.37,10.53-7.36,18.81-14.99,24.83-7.63,6.02-17.04,9.03-28.21,9.03-8.81,0-16.63-1.88-23.46-5.64-6.83-3.76-12.15-9.13-15.96-16.12-3.82-6.98-5.72-15.15-5.72-24.5s1.91-17.52,5.72-24.5Z"></path>
      <path d="M1111.39,166.45c-7.04-3.76-12.57-9.13-16.6-16.12-4.03-6.98-6.05-15.15-6.05-24.5s2.04-17.38,6.13-24.42c4.08-7.04,9.67-12.44,16.77-16.2,7.09-3.76,15.04-5.64,23.86-5.64s16.77,1.88,23.86,5.64c7.09,3.76,12.68,9.16,16.77,16.2,4.08,7.04,6.13,15.18,6.13,24.42s-2.07,17.39-6.21,24.42c-4.14,7.04-9.78,12.44-16.93,16.2-7.15,3.76-15.13,5.64-23.94,5.64s-16.74-1.88-23.78-5.64ZM1148.63,142.43c3.71-3.87,5.56-9.4,5.56-16.6s-1.8-12.74-5.4-16.6c-3.6-3.87-8.04-5.8-13.3-5.8s-9.83,1.91-13.38,5.72c-3.55,3.82-5.32,9.38-5.32,16.69s1.75,12.74,5.24,16.6c3.49,3.87,7.87,5.8,13.14,5.8s9.75-1.93,13.46-5.8Z"></path>
      <path d="M1247.05,147.42v23.38h-14.03c-10,0-17.79-2.44-23.38-7.33-5.59-4.89-8.38-12.87-8.38-23.94v-35.79h-10.96v-22.89h10.96v-21.92h27.57v21.92h18.06v22.89h-18.06v36.11c0,2.69.64,4.62,1.93,5.8,1.29,1.18,3.44,1.77,6.45,1.77h9.83Z"></path>
      <path d="M1312.5,147.42v23.38h-14.03c-10,0-17.79-2.44-23.38-7.33-5.59-4.89-8.38-12.87-8.38-23.94v-35.79h-10.96v-22.89h10.96v-21.92h27.57v21.92h18.06v22.89h-18.06v36.11c0,2.69.64,4.62,1.93,5.8,1.29,1.18,3.44,1.77,6.45,1.77h9.83Z"></path>
      <path d="M1329.82,67.22c-3.06-2.85-4.59-6.37-4.59-10.56s1.53-7.87,4.59-10.72c3.06-2.85,7.01-4.27,11.85-4.27s8.62,1.43,11.69,4.27c3.06,2.85,4.59,6.42,4.59,10.72s-1.53,7.71-4.59,10.56c-3.06,2.85-6.96,4.27-11.69,4.27s-8.79-1.42-11.85-4.27ZM1355.38,80.84v89.96h-27.57v-89.96h27.57Z"></path>
      <path d="M638,258.18c8.92,4.73,15.82,11.37,20.72,19.91,4.89,8.54,7.33,18.41,7.33,29.58s-2.45,20.9-7.33,29.5c-4.89,8.6-11.82,15.26-20.8,19.99-8.97,4.73-19.37,7.09-31.19,7.09h-42.4v-113.17h42.4c11.93,0,22.35,2.37,31.27,7.09ZM629.29,331.85c5.8-5.7,8.71-13.76,8.71-24.18s-2.9-18.54-8.71-24.34-13.92-8.71-24.34-8.71h-13.06v65.77h13.06c10.42,0,18.54-2.85,24.34-8.54Z"></path>
      <path d="M765.84,325.88h-62.39c.43,5.59,2.23,9.86,5.4,12.82,3.17,2.96,7.07,4.43,11.69,4.43,6.88,0,11.66-2.9,14.35-8.71h29.34c-1.51,5.91-4.22,11.23-8.14,15.96-3.92,4.73-8.84,8.44-14.75,11.12-5.91,2.69-12.52,4.03-19.83,4.03-8.81,0-16.66-1.88-23.54-5.64-6.88-3.76-12.25-9.13-16.12-16.12-3.87-6.99-5.8-15.15-5.8-24.5s1.91-17.52,5.72-24.5c3.81-6.99,9.16-12.36,16.04-16.12,6.88-3.76,14.78-5.64,23.7-5.64s16.44,1.83,23.21,5.48c6.77,3.65,12.06,8.87,15.88,15.64,3.81,6.77,5.72,14.67,5.72,23.7,0,2.58-.16,5.27-.48,8.06ZM738.11,310.57c0-4.73-1.61-8.49-4.84-11.28-3.22-2.79-7.25-4.19-12.09-4.19s-8.52,1.34-11.69,4.03c-3.17,2.69-5.13,6.5-5.88,11.45h34.5Z"></path>
      <path d="M796.47,361.51c-6.13-2.69-10.96-6.37-14.51-11.04-3.55-4.68-5.54-9.92-5.96-15.72h27.24c.32,3.12,1.77,5.64,4.35,7.58s5.75,2.9,9.51,2.9c3.44,0,6.1-.67,7.98-2.02,1.88-1.34,2.82-3.09,2.82-5.24,0-2.58-1.34-4.49-4.03-5.72-2.69-1.23-7.04-2.6-13.06-4.11-6.45-1.5-11.82-3.09-16.12-4.76-4.3-1.67-8.01-4.3-11.12-7.9-3.12-3.6-4.67-8.46-4.67-14.59,0-5.16,1.42-9.86,4.27-14.11,2.85-4.24,7.04-7.6,12.57-10.08,5.53-2.47,12.12-3.71,19.75-3.71,11.29,0,20.18,2.8,26.68,8.38,6.5,5.59,10.24,13,11.2,22.25h-25.47c-.43-3.12-1.8-5.59-4.11-7.42-2.31-1.83-5.35-2.74-9.11-2.74-3.22,0-5.7.62-7.42,1.85-1.72,1.24-2.58,2.93-2.58,5.08,0,2.58,1.37,4.51,4.11,5.8,2.74,1.29,7.01,2.58,12.82,3.87,6.66,1.72,12.09,3.41,16.28,5.08,4.19,1.67,7.87,4.35,11.04,8.06,3.17,3.71,4.81,8.68,4.92,14.91,0,5.27-1.48,9.97-4.43,14.11-2.96,4.14-7.2,7.39-12.74,9.75-5.54,2.36-11.96,3.55-19.26,3.55-7.85,0-14.83-1.34-20.96-4.03Z"></path>
      <path d="M872.8,260.67c-3.06-2.85-4.59-6.37-4.59-10.56s1.53-7.87,4.59-10.72c3.06-2.85,7.01-4.27,11.85-4.27s8.62,1.43,11.69,4.27c3.06,2.85,4.59,6.42,4.59,10.72s-1.53,7.71-4.59,10.56c-3.06,2.85-6.96,4.27-11.69,4.27s-8.79-1.42-11.85-4.27ZM898.35,274.3v89.96h-27.57v-89.96h27.57Z"></path>
      <path d="M969.21,276.88c4.78,2.58,8.46,5.96,11.04,10.16v-12.74h27.57v89.79c0,8.27-1.64,15.77-4.92,22.49-3.28,6.71-8.28,12.06-14.99,16.04-6.72,3.97-15.07,5.96-25.07,5.96-13.33,0-24.13-3.14-32.4-9.43-8.28-6.29-13-14.81-14.19-25.55h27.24c.86,3.44,2.9,6.15,6.13,8.14,3.22,1.99,7.2,2.98,11.93,2.98,5.7,0,10.24-1.64,13.62-4.92,3.38-3.28,5.08-8.52,5.08-15.72v-12.74c-2.69,4.19-6.4,7.6-11.12,10.24-4.73,2.63-10.26,3.95-16.6,3.95-7.42,0-14.13-1.91-20.15-5.72-6.02-3.81-10.78-9.24-14.27-16.28-3.49-7.04-5.24-15.18-5.24-24.42s1.75-17.36,5.24-24.34c3.49-6.99,8.25-12.36,14.27-16.12,6.02-3.76,12.74-5.64,20.15-5.64,6.34,0,11.9,1.29,16.69,3.87ZM974.52,302.99c-3.82-3.98-8.46-5.96-13.94-5.96s-10.13,1.96-13.95,5.88c-3.82,3.92-5.72,9.33-5.72,16.2s1.91,12.33,5.72,16.36c3.81,4.03,8.46,6.05,13.95,6.05s10.13-1.99,13.94-5.96c3.81-3.97,5.72-9.4,5.72-16.28s-1.91-12.31-5.72-16.28Z"></path>
      <path d="M1107.84,283.57c6.29,6.83,9.43,16.2,9.43,28.13v52.55h-27.41v-48.85c0-6.02-1.56-10.69-4.68-14.03-3.12-3.33-7.31-5-12.57-5s-9.46,1.67-12.57,5c-3.12,3.33-4.67,8.01-4.67,14.03v48.85h-27.57v-89.96h27.57v11.93c2.79-3.98,6.55-7.12,11.28-9.43,4.73-2.31,10.05-3.47,15.96-3.47,10.53,0,18.94,3.41,25.23,10.24Z"></path>
    </g>
  </g>
</svg>
